<svg width="434" height="71" viewBox="0 0 434 71" fill="none" xmlns="http://www.w3.org/2000/svg">
<path d="M55.9062 47.2656C55.375 54.6094 52.6562 60.3906 47.75 64.6094C42.875 68.8281 36.4375 70.9375 28.4375 70.9375C19.6875 70.9375 12.7969 68 7.76562 62.125C2.76562 56.2188 0.265625 48.125 0.265625 37.8438V33.6719C0.265625 27.1094 1.42188 21.3281 3.73438 16.3281C6.04688 11.3281 9.34375 7.5 13.625 4.84375C17.9375 2.15625 22.9375 0.8125 28.625 0.8125C36.5 0.8125 42.8438 2.92188 47.6562 7.14062C52.4688 11.3594 55.25 17.2812 56 24.9062H41.9375C41.5938 20.5 40.3594 17.3125 38.2344 15.3438C36.1406 13.3438 32.9375 12.3438 28.625 12.3438C23.9375 12.3438 20.4219 14.0312 18.0781 17.4062C15.7656 20.75 14.5781 25.9531 14.5156 33.0156V38.1719C14.5156 45.5469 15.625 50.9375 17.8438 54.3438C20.0938 57.75 23.625 59.4531 28.4375 59.4531C32.7812 59.4531 36.0156 58.4688 38.1406 56.5C40.2969 54.5 41.5312 51.4219 41.8438 47.2656H55.9062ZM62.1406 44.1719C62.1406 39.1406 63.1094 34.6562 65.0469 30.7188C66.9844 26.7812 69.7656 23.7344 73.3906 21.5781C77.0469 19.4219 81.2812 18.3438 86.0938 18.3438C92.9375 18.3438 98.5156 20.4375 102.828 24.625C107.172 28.8125 109.594 34.5 110.094 41.6875L110.188 45.1562C110.188 52.9375 108.016 59.1875 103.672 63.9062C99.3281 68.5938 93.5 70.9375 86.1875 70.9375C78.875 70.9375 73.0312 68.5938 68.6562 63.9062C64.3125 59.2188 62.1406 52.8438 62.1406 44.7812V44.1719ZM75.6875 45.1562C75.6875 49.9688 76.5938 53.6562 78.4062 56.2188C80.2188 58.75 82.8125 60.0156 86.1875 60.0156C89.4688 60.0156 92.0312 58.7656 93.875 56.2656C95.7188 53.7344 96.6406 49.7031 96.6406 44.1719C96.6406 39.4531 95.7188 35.7969 93.875 33.2031C92.0312 30.6094 89.4375 29.3125 86.0938 29.3125C82.7812 29.3125 80.2188 30.6094 78.4062 33.2031C76.5938 35.7656 75.6875 39.75 75.6875 45.1562ZM131 19.2812L131.422 25.1406C135.047 20.6094 139.906 18.3438 146 18.3438C151.375 18.3438 155.375 19.9219 158 23.0781C160.625 26.2344 161.969 30.9531 162.031 37.2344V70H148.484V37.5625C148.484 34.6875 147.859 32.6094 146.609 31.3281C145.359 30.0156 143.281 29.3594 140.375 29.3594C136.562 29.3594 133.703 30.9844 131.797 34.2344V70H118.25V19.2812H131ZM188.562 6.8125V19.2812H197.234V29.2188H188.562V54.5312C188.562 56.4062 188.922 57.75 189.641 58.5625C190.359 59.375 191.734 59.7812 193.766 59.7812C195.266 59.7812 196.594 59.6719 197.75 59.4531V69.7188C195.094 70.5312 192.359 70.9375 189.547 70.9375C180.047 70.9375 175.203 66.1406 175.016 56.5469V29.2188H167.609V19.2812H175.016V6.8125H188.562ZM235.156 64.8438C231.812 68.9062 227.188 70.9375 221.281 70.9375C215.844 70.9375 211.688 69.375 208.812 66.25C205.969 63.125 204.516 58.5469 204.453 52.5156V19.2812H218V52.0469C218 57.3281 220.406 59.9688 225.219 59.9688C229.812 59.9688 232.969 58.375 234.688 55.1875V19.2812H248.281V70H235.531L235.156 64.8438ZM271.203 19.2812L271.625 24.9531C275.219 20.5469 280.078 18.3438 286.203 18.3438C292.734 18.3438 297.219 20.9219 299.656 26.0781C303.219 20.9219 308.297 18.3438 314.891 18.3438C320.391 18.3438 324.484 19.9531 327.172 23.1719C329.859 26.3594 331.203 31.1719 331.203 37.6094V70H317.609V37.6562C317.609 34.7812 317.047 32.6875 315.922 31.375C314.797 30.0312 312.812 29.3594 309.969 29.3594C305.906 29.3594 303.094 31.2969 301.531 35.1719L301.578 70H288.031V37.7031C288.031 34.7656 287.453 32.6406 286.297 31.3281C285.141 30.0156 283.172 29.3594 280.391 29.3594C276.547 29.3594 273.766 30.9531 272.047 34.1406V70H258.5V19.2812H271.203ZM371.047 70C370.422 68.7812 369.969 67.2656 369.688 65.4531C366.406 69.1094 362.141 70.9375 356.891 70.9375C351.922 70.9375 347.797 69.5 344.516 66.625C341.266 63.75 339.641 60.125 339.641 55.75C339.641 50.375 341.625 46.25 345.594 43.375C349.594 40.5 355.359 39.0469 362.891 39.0156H369.125V36.1094C369.125 33.7656 368.516 31.8906 367.297 30.4844C366.109 29.0781 364.219 28.375 361.625 28.375C359.344 28.375 357.547 28.9219 356.234 30.0156C354.953 31.1094 354.312 32.6094 354.312 34.5156H340.766C340.766 31.5781 341.672 28.8594 343.484 26.3594C345.297 23.8594 347.859 21.9062 351.172 20.5C354.484 19.0625 358.203 18.3438 362.328 18.3438C368.578 18.3438 373.531 19.9219 377.188 23.0781C380.875 26.2031 382.719 30.6094 382.719 36.2969V58.2812C382.75 63.0938 383.422 66.7344 384.734 69.2031V70H371.047ZM359.844 60.5781C361.844 60.5781 363.688 60.1406 365.375 59.2656C367.062 58.3594 368.312 57.1562 369.125 55.6562V46.9375H364.062C357.281 46.9375 353.672 49.2812 353.234 53.9688L353.188 54.7656C353.188 56.4531 353.781 57.8438 354.969 58.9375C356.156 60.0312 357.781 60.5781 359.844 60.5781ZM408.688 59.0781H433.484V70H391.391V61.75L415.25 30.25H392.094V19.2812H432.734V27.2969L408.688 59.0781Z" fill="black"/>
</svg>
